# xmcd
#
# Track frame offsets:
#	150
#	27379
#	37220
#	63967
#	87759
#	106206
#	120324
#	141785
#	162438
#	184450
#	208894
#	220669
#	243318
#	266404
#	290319
#	309829
#
# Disc length: 4344 seconds
#
# Revision: 0
# Processed by: cddbd v1.5.2PL0 Copyright (c) Steve Scherf et al.
# Submitted via: dBpowerAMP V4.0
#
DISCID=e410f610
DTITLE=John Mayall - Bits And Pieces About John Mayall [Bonus CD]
DYEAR=2006
DGENRE=Blues
TTITLE0=Dream About The Blues
TTITLE1=I'm Your Witchdoctor
TTITLE2=Tears Came Rollin' Down
TTITLE3=Gimme One More Day
TTITLE4=John Lee Boogie
TTITLE5=Why Worry
TTITLE6=Fascinatin' Lover
TTITLE7=Last Time
TTITLE8=The Dirty Dozens
TTITLE9=Chicago Line
TTITLE10=Lost And Gone
TTITLE11=A Hard Road
TTITLE12=Cold Blooded Woman
TTITLE13=One Life To Live
TTITLE14=Roadshow
TTITLE15=It Ain't Right (Live)
EXTD=
EXTT0=
EXTT1=
EXTT2=
EXTT3=
EXTT4=
EXTT5=
EXTT6=
EXTT7=
EXTT8=
EXTT9=
EXTT10=
EXTT11=
EXTT12=
EXTT13=
EXTT14=
EXTT15=
PLAYORDER=
